%TF.GenerationSoftware,KiCad,Pcbnew,(6.0.7)*%
%TF.CreationDate,2023-06-13T14:52:57-04:00*%
%TF.ProjectId,STM32-NHD,53544d33-322d-44e4-9844-2e6b69636164,rev?*%
%TF.SameCoordinates,Original*%
%TF.FileFunction,Soldermask,Bot*%
%TF.FilePolarity,Negative*%
%FSLAX46Y46*%
G04 Gerber Fmt 4.6, Leading zero omitted, Abs format (unit mm)*
G04 Created by KiCad (PCBNEW (6.0.7)) date 2023-06-13 14:52:57*
%MOMM*%
%LPD*%
G01*
G04 APERTURE LIST*
%ADD10C,3.500000*%
%ADD11C,1.524000*%
%ADD12R,1.600000X1.600000*%
%ADD13O,1.600000X1.600000*%
%ADD14R,1.727200X2.250000*%
%ADD15O,1.727200X2.250000*%
%ADD16O,1.727200X1.727200*%
G04 APERTURE END LIST*
D10*
%TO.C,REF\u002A\u002A*%
X129248408Y-97351088D03*
X129248408Y-92601088D03*
X129248408Y-87851088D03*
%TD*%
D11*
%TO.C,REF\u002A\u002A*%
X131776216Y-105794048D03*
X129236216Y-105794048D03*
%TD*%
D12*
%TO.C,*%
X176675000Y-89675000D03*
D13*
X174135000Y-89675000D03*
X171595000Y-89675000D03*
X169055000Y-89675000D03*
%TD*%
D14*
%TO.C,*%
X133065000Y-115675000D03*
D15*
X135605000Y-115675000D03*
X138145000Y-115675000D03*
X140685000Y-115675000D03*
X143225000Y-115675000D03*
X145765000Y-115675000D03*
X148305000Y-115675000D03*
X150845000Y-115675000D03*
X153385000Y-115675000D03*
X155925000Y-115675000D03*
X158465000Y-115675000D03*
X161005000Y-115675000D03*
X163545000Y-115675000D03*
X166085000Y-115675000D03*
X168625000Y-115675000D03*
X171165000Y-115675000D03*
X173705000Y-115675000D03*
X176245000Y-115675000D03*
X178785000Y-115675000D03*
X181325000Y-115675000D03*
X181325000Y-100435000D03*
X178785000Y-100435000D03*
X176245000Y-100435000D03*
X173705000Y-100435000D03*
X171165000Y-100435000D03*
X168625000Y-100435000D03*
X166085000Y-100435000D03*
X163545000Y-100435000D03*
X161005000Y-100435000D03*
X158465000Y-100435000D03*
X155925000Y-100435000D03*
X153385000Y-100435000D03*
X150845000Y-100435000D03*
X148305000Y-100435000D03*
X145765000Y-100435000D03*
X143225000Y-100435000D03*
X140685000Y-100435000D03*
X138145000Y-100435000D03*
X135605000Y-100435000D03*
X133014200Y-100435000D03*
D16*
X136875000Y-106775000D03*
X136875000Y-109315000D03*
%TD*%
D11*
%TO.C,REF\u002A\u002A*%
X128444752Y-113551208D03*
X128444752Y-111011208D03*
%TD*%
D12*
%TO.C,*%
X176726864Y-85480144D03*
D13*
X174186864Y-85480144D03*
X171646864Y-85480144D03*
X169106864Y-85480144D03*
%TD*%
D12*
%TO.C,*%
X142850000Y-96650000D03*
D13*
X142850000Y-94110000D03*
X142850000Y-91570000D03*
X142850000Y-89030000D03*
%TD*%
M02*
