%TF.GenerationSoftware,KiCad,Pcbnew,(6.0.7)*%
%TF.CreationDate,2023-06-13T14:52:57-04:00*%
%TF.ProjectId,STM32-NHD,53544d33-322d-44e4-9844-2e6b69636164,rev?*%
%TF.SameCoordinates,Original*%
%TF.FileFunction,Copper,L2,Bot*%
%TF.FilePolarity,Positive*%
%FSLAX46Y46*%
G04 Gerber Fmt 4.6, Leading zero omitted, Abs format (unit mm)*
G04 Created by KiCad (PCBNEW (6.0.7)) date 2023-06-13 14:52:57*
%MOMM*%
%LPD*%
G01*
G04 APERTURE LIST*
%TA.AperFunction,ComponentPad*%
%ADD10C,3.500000*%
%TD*%
%TA.AperFunction,ComponentPad*%
%ADD11C,1.524000*%
%TD*%
%TA.AperFunction,ComponentPad*%
%ADD12R,1.600000X1.600000*%
%TD*%
%TA.AperFunction,ComponentPad*%
%ADD13O,1.600000X1.600000*%
%TD*%
%TA.AperFunction,ComponentPad*%
%ADD14R,1.727200X2.250000*%
%TD*%
%TA.AperFunction,ComponentPad*%
%ADD15O,1.727200X2.250000*%
%TD*%
%TA.AperFunction,ComponentPad*%
%ADD16O,1.727200X1.727200*%
%TD*%
%TA.AperFunction,Conductor*%
%ADD17C,0.200000*%
%TD*%
%TA.AperFunction,Conductor*%
%ADD18C,0.250000*%
%TD*%
G04 APERTURE END LIST*
D10*
%TO.P,REF\u002A\u002A,1*%
%TO.N,N/C*%
X129248408Y-97351088D03*
%TO.P,REF\u002A\u002A,2*%
X129248408Y-92601088D03*
%TO.P,REF\u002A\u002A,3*%
X129248408Y-87851088D03*
%TD*%
D11*
%TO.P,REF\u002A\u002A,1*%
%TO.N,N/C*%
X131776216Y-105794048D03*
%TO.P,REF\u002A\u002A,2*%
X129236216Y-105794048D03*
%TD*%
D12*
%TO.P,,1*%
%TO.N,N/C*%
X176675000Y-89675000D03*
D13*
%TO.P,,2*%
X174135000Y-89675000D03*
%TO.P,,3*%
X171595000Y-89675000D03*
%TO.P,,4*%
X169055000Y-89675000D03*
%TD*%
D14*
%TO.P,,1*%
%TO.N,N/C*%
X133065000Y-115675000D03*
D15*
%TO.P,,2*%
X135605000Y-115675000D03*
%TO.P,,3*%
X138145000Y-115675000D03*
%TO.P,,4*%
X140685000Y-115675000D03*
%TO.P,,5*%
X143225000Y-115675000D03*
%TO.P,,6*%
X145765000Y-115675000D03*
%TO.P,,7*%
X148305000Y-115675000D03*
%TO.P,,8*%
X150845000Y-115675000D03*
%TO.P,,9*%
X153385000Y-115675000D03*
%TO.P,,10*%
X155925000Y-115675000D03*
%TO.P,,11*%
X158465000Y-115675000D03*
%TO.P,,12*%
X161005000Y-115675000D03*
%TO.P,,13*%
X163545000Y-115675000D03*
%TO.P,,14*%
X166085000Y-115675000D03*
%TO.P,,15*%
X168625000Y-115675000D03*
%TO.P,,16*%
X171165000Y-115675000D03*
%TO.P,,17*%
X173705000Y-115675000D03*
%TO.P,,18*%
X176245000Y-115675000D03*
%TO.P,,19*%
X178785000Y-115675000D03*
%TO.P,,20*%
X181325000Y-115675000D03*
%TO.P,,21*%
X181325000Y-100435000D03*
%TO.P,,22*%
X178785000Y-100435000D03*
%TO.P,,23*%
X176245000Y-100435000D03*
%TO.P,,24*%
X173705000Y-100435000D03*
%TO.P,,25*%
X171165000Y-100435000D03*
%TO.P,,26*%
X168625000Y-100435000D03*
%TO.P,,27*%
X166085000Y-100435000D03*
%TO.P,,28*%
X163545000Y-100435000D03*
%TO.P,,29*%
X161005000Y-100435000D03*
%TO.P,,30*%
X158465000Y-100435000D03*
%TO.P,,31*%
X155925000Y-100435000D03*
%TO.P,,32*%
X153385000Y-100435000D03*
%TO.P,,33*%
X150845000Y-100435000D03*
%TO.P,,34*%
X148305000Y-100435000D03*
%TO.P,,35*%
X145765000Y-100435000D03*
%TO.P,,36*%
X143225000Y-100435000D03*
%TO.P,,37*%
X140685000Y-100435000D03*
%TO.P,,38*%
X138145000Y-100435000D03*
%TO.P,,39*%
X135605000Y-100435000D03*
%TO.P,,40*%
X133014200Y-100435000D03*
D16*
%TO.P,,41*%
X136875000Y-106775000D03*
%TO.P,,42*%
X136875000Y-109315000D03*
%TD*%
D11*
%TO.P,REF\u002A\u002A,1*%
%TO.N,N/C*%
X128444752Y-113551208D03*
%TO.P,REF\u002A\u002A,2*%
X128444752Y-111011208D03*
%TD*%
D12*
%TO.P,,1*%
%TO.N,N/C*%
X176726864Y-85480144D03*
D13*
%TO.P,,2*%
X174186864Y-85480144D03*
%TO.P,,3*%
X171646864Y-85480144D03*
%TO.P,,4*%
X169106864Y-85480144D03*
%TD*%
D12*
%TO.P,,1*%
%TO.N,N/C*%
X142850000Y-96650000D03*
D13*
%TO.P,,2*%
X142850000Y-94110000D03*
%TO.P,,3*%
X142850000Y-91570000D03*
%TO.P,,4*%
X142850000Y-89030000D03*
%TD*%
D17*
%TO.N,*%
X169783760Y-95938848D02*
X168911016Y-95938848D01*
X169877232Y-107913424D02*
X169877232Y-104371648D01*
D18*
X140685000Y-97910384D02*
X135375704Y-92601088D01*
D17*
X178785000Y-115675000D02*
X178854608Y-115605392D01*
X182119016Y-108184696D02*
X182119016Y-108179616D01*
X176245000Y-111441472D02*
X172716952Y-107913424D01*
X174186864Y-85480144D02*
X176726864Y-85480144D01*
D18*
X128444752Y-113551208D02*
X128615440Y-113380520D01*
D17*
X169877232Y-96032320D02*
X169783760Y-95938848D01*
D18*
X135375704Y-92601088D02*
X129248408Y-92601088D01*
X134701280Y-108781088D02*
X134701280Y-103878720D01*
X135061088Y-97351088D02*
X138145000Y-100435000D01*
D17*
X169106864Y-85480144D02*
X171646864Y-85480144D01*
X172716952Y-107913424D02*
X169877232Y-107913424D01*
X168908984Y-95936816D02*
X167108632Y-95936816D01*
X167108632Y-87478376D02*
X169106864Y-85480144D01*
X178854608Y-111449104D02*
X182119016Y-108184696D01*
D18*
X128444752Y-113551208D02*
X129931160Y-113551208D01*
D17*
X178854608Y-115605392D02*
X178854608Y-111449104D01*
X169877232Y-104371648D02*
X169877232Y-96032320D01*
X182645304Y-91398584D02*
X176726864Y-85480144D01*
X176245000Y-115675000D02*
X176245000Y-111441472D01*
D18*
X140685000Y-100435000D02*
X140685000Y-97910384D01*
D17*
X168911016Y-95938848D02*
X168908984Y-95936816D01*
X182645304Y-107653328D02*
X182645304Y-91398584D01*
X167108632Y-95936816D02*
X167108632Y-87478376D01*
D18*
X129931160Y-113551208D02*
X134701280Y-108781088D01*
D17*
X182119016Y-108179616D02*
X182645304Y-107653328D01*
D18*
X129248408Y-97351088D02*
X135061088Y-97351088D01*
X134701280Y-103878720D02*
X138145000Y-100435000D01*
%TD*%
M02*
