%TF.GenerationSoftware,KiCad,Pcbnew,(6.0.7)*%
%TF.CreationDate,2023-06-13T14:52:57-04:00*%
%TF.ProjectId,STM32-NHD,53544d33-322d-44e4-9844-2e6b69636164,rev?*%
%TF.SameCoordinates,Original*%
%TF.FileFunction,Legend,Top*%
%TF.FilePolarity,Positive*%
%FSLAX46Y46*%
G04 Gerber Fmt 4.6, Leading zero omitted, Abs format (unit mm)*
G04 Created by KiCad (PCBNEW (6.0.7)) date 2023-06-13 14:52:57*
%MOMM*%
%LPD*%
G01*
G04 APERTURE LIST*
%ADD10C,0.300000*%
%ADD11C,0.150000*%
%ADD12C,0.120000*%
%ADD13R,1.727200X2.250000*%
%ADD14O,1.727200X2.250000*%
%ADD15O,1.727200X1.727200*%
G04 APERTURE END LIST*
D10*
X171525443Y-93160678D02*
X171739729Y-93232107D01*
X172096872Y-93232107D01*
X172239729Y-93160678D01*
X172311157Y-93089250D01*
X172382586Y-92946393D01*
X172382586Y-92803536D01*
X172311157Y-92660678D01*
X172239729Y-92589250D01*
X172096872Y-92517821D01*
X171811157Y-92446393D01*
X171668300Y-92374964D01*
X171596872Y-92303536D01*
X171525443Y-92160678D01*
X171525443Y-92017821D01*
X171596872Y-91874964D01*
X171668300Y-91803536D01*
X171811157Y-91732107D01*
X172168300Y-91732107D01*
X172382586Y-91803536D01*
X173025443Y-93232107D02*
X173025443Y-91732107D01*
X173382586Y-91732107D01*
X173596872Y-91803536D01*
X173739729Y-91946393D01*
X173811157Y-92089250D01*
X173882586Y-92374964D01*
X173882586Y-92589250D01*
X173811157Y-92874964D01*
X173739729Y-93017821D01*
X173596872Y-93160678D01*
X173382586Y-93232107D01*
X173025443Y-93232107D01*
X174454014Y-92803536D02*
X175168300Y-92803536D01*
X174311157Y-93232107D02*
X174811157Y-91732107D01*
X175311157Y-93232107D01*
X175320602Y-82700251D02*
X174606316Y-82700251D01*
X174606316Y-81200251D01*
X176677745Y-82557394D02*
X176606316Y-82628822D01*
X176392030Y-82700251D01*
X176249173Y-82700251D01*
X176034888Y-82628822D01*
X175892030Y-82485965D01*
X175820602Y-82343108D01*
X175749173Y-82057394D01*
X175749173Y-81843108D01*
X175820602Y-81557394D01*
X175892030Y-81414537D01*
X176034888Y-81271680D01*
X176249173Y-81200251D01*
X176392030Y-81200251D01*
X176606316Y-81271680D01*
X176677745Y-81343108D01*
X177320602Y-82700251D02*
X177320602Y-81200251D01*
X177677745Y-81200251D01*
X177892030Y-81271680D01*
X178034888Y-81414537D01*
X178106316Y-81557394D01*
X178177745Y-81843108D01*
X178177745Y-82057394D01*
X178106316Y-82343108D01*
X178034888Y-82485965D01*
X177892030Y-82628822D01*
X177677745Y-82700251D01*
X177320602Y-82700251D01*
X178820602Y-82128822D02*
X179963459Y-82128822D01*
X147733176Y-121384067D02*
X147876033Y-121384067D01*
X148018890Y-121455496D01*
X148090318Y-121526924D01*
X148161747Y-121669781D01*
X148233176Y-121955496D01*
X148233176Y-122312638D01*
X148161747Y-122598353D01*
X148090318Y-122741210D01*
X148018890Y-122812638D01*
X147876033Y-122884067D01*
X147733176Y-122884067D01*
X147590318Y-122812638D01*
X147518890Y-122741210D01*
X147447461Y-122598353D01*
X147376033Y-122312638D01*
X147376033Y-121955496D01*
X147447461Y-121669781D01*
X147518890Y-121526924D01*
X147590318Y-121455496D01*
X147733176Y-121384067D01*
X149518890Y-121884067D02*
X149518890Y-122884067D01*
X149161747Y-121312638D02*
X148804604Y-122384067D01*
X149733176Y-122384067D01*
X150590318Y-121384067D02*
X150733176Y-121384067D01*
X150876033Y-121455496D01*
X150947461Y-121526924D01*
X151018890Y-121669781D01*
X151090318Y-121955496D01*
X151090318Y-122312638D01*
X151018890Y-122598353D01*
X150947461Y-122741210D01*
X150876033Y-122812638D01*
X150733176Y-122884067D01*
X150590318Y-122884067D01*
X150447461Y-122812638D01*
X150376033Y-122741210D01*
X150304604Y-122598353D01*
X150233176Y-122312638D01*
X150233176Y-121955496D01*
X150304604Y-121669781D01*
X150376033Y-121526924D01*
X150447461Y-121455496D01*
X150590318Y-121384067D01*
X151661747Y-121526924D02*
X151733176Y-121455496D01*
X151876033Y-121384067D01*
X152233176Y-121384067D01*
X152376033Y-121455496D01*
X152447461Y-121526924D01*
X152518890Y-121669781D01*
X152518890Y-121812638D01*
X152447461Y-122026924D01*
X151590318Y-122884067D01*
X152518890Y-122884067D01*
X153018890Y-121384067D02*
X154018890Y-121384067D01*
X153376033Y-122884067D01*
X154590318Y-122312638D02*
X155733176Y-122312638D01*
X156733176Y-121384067D02*
X156876033Y-121384067D01*
X157018890Y-121455496D01*
X157090318Y-121526924D01*
X157161747Y-121669781D01*
X157233176Y-121955496D01*
X157233176Y-122312638D01*
X157161747Y-122598353D01*
X157090318Y-122741210D01*
X157018890Y-122812638D01*
X156876033Y-122884067D01*
X156733176Y-122884067D01*
X156590318Y-122812638D01*
X156518890Y-122741210D01*
X156447461Y-122598353D01*
X156376033Y-122312638D01*
X156376033Y-121955496D01*
X156447461Y-121669781D01*
X156518890Y-121526924D01*
X156590318Y-121455496D01*
X156733176Y-121384067D01*
X158161747Y-121384067D02*
X158304604Y-121384067D01*
X158447461Y-121455496D01*
X158518890Y-121526924D01*
X158590318Y-121669781D01*
X158661747Y-121955496D01*
X158661747Y-122312638D01*
X158590318Y-122598353D01*
X158518890Y-122741210D01*
X158447461Y-122812638D01*
X158304604Y-122884067D01*
X158161747Y-122884067D01*
X158018890Y-122812638D01*
X157947461Y-122741210D01*
X157876033Y-122598353D01*
X157804604Y-122312638D01*
X157804604Y-121955496D01*
X157876033Y-121669781D01*
X157947461Y-121526924D01*
X158018890Y-121455496D01*
X158161747Y-121384067D01*
X160090318Y-122884067D02*
X159233176Y-122884067D01*
X159661747Y-122884067D02*
X159661747Y-121384067D01*
X159518890Y-121598353D01*
X159376033Y-121741210D01*
X159233176Y-121812638D01*
X160733176Y-122312638D02*
X161876033Y-122312638D01*
X162590318Y-122884067D02*
X162590318Y-121384067D01*
X163447461Y-122884067D01*
X163447461Y-121384067D01*
X164161747Y-122884067D02*
X164161747Y-121384067D01*
X164161747Y-122098353D02*
X165018890Y-122098353D01*
X165018890Y-122884067D02*
X165018890Y-121384067D01*
X165733176Y-122884067D02*
X165733176Y-121384067D01*
X166090318Y-121384067D01*
X166304604Y-121455496D01*
X166447461Y-121598353D01*
X166518890Y-121741210D01*
X166590318Y-122026924D01*
X166590318Y-122241210D01*
X166518890Y-122526924D01*
X166447461Y-122669781D01*
X166304604Y-122812638D01*
X166090318Y-122884067D01*
X165733176Y-122884067D01*
X168466113Y-111741595D02*
X168466113Y-110241595D01*
X169037541Y-110241595D01*
X169180398Y-110313024D01*
X169251827Y-110384452D01*
X169323256Y-110527309D01*
X169323256Y-110741595D01*
X169251827Y-110884452D01*
X169180398Y-110955881D01*
X169037541Y-111027309D01*
X168466113Y-111027309D01*
X170466113Y-110955881D02*
X170680398Y-111027309D01*
X170751827Y-111098738D01*
X170823256Y-111241595D01*
X170823256Y-111455881D01*
X170751827Y-111598738D01*
X170680398Y-111670166D01*
X170537541Y-111741595D01*
X169966113Y-111741595D01*
X169966113Y-110241595D01*
X170466113Y-110241595D01*
X170608970Y-110313024D01*
X170680398Y-110384452D01*
X170751827Y-110527309D01*
X170751827Y-110670166D01*
X170680398Y-110813024D01*
X170608970Y-110884452D01*
X170466113Y-110955881D01*
X169966113Y-110955881D01*
X171323256Y-110241595D02*
X172323256Y-110241595D01*
X171680398Y-111741595D01*
X144875917Y-94240686D02*
X145090203Y-94312115D01*
X145447346Y-94312115D01*
X145590203Y-94240686D01*
X145661632Y-94169258D01*
X145733060Y-94026401D01*
X145733060Y-93883544D01*
X145661632Y-93740686D01*
X145590203Y-93669258D01*
X145447346Y-93597829D01*
X145161632Y-93526401D01*
X145018774Y-93454972D01*
X144947346Y-93383544D01*
X144875917Y-93240686D01*
X144875917Y-93097829D01*
X144947346Y-92954972D01*
X145018774Y-92883544D01*
X145161632Y-92812115D01*
X145518774Y-92812115D01*
X145733060Y-92883544D01*
X147233060Y-94169258D02*
X147161632Y-94240686D01*
X146947346Y-94312115D01*
X146804489Y-94312115D01*
X146590203Y-94240686D01*
X146447346Y-94097829D01*
X146375917Y-93954972D01*
X146304489Y-93669258D01*
X146304489Y-93454972D01*
X146375917Y-93169258D01*
X146447346Y-93026401D01*
X146590203Y-92883544D01*
X146804489Y-92812115D01*
X146947346Y-92812115D01*
X147161632Y-92883544D01*
X147233060Y-92954972D01*
X148590203Y-94312115D02*
X147875917Y-94312115D01*
X147875917Y-92812115D01*
D11*
X131037844Y-114689283D02*
X130037844Y-114689283D01*
X130037844Y-114308331D01*
X130085464Y-114213093D01*
X130133083Y-114165474D01*
X130228321Y-114117855D01*
X130371178Y-114117855D01*
X130466416Y-114165474D01*
X130514035Y-114213093D01*
X130561654Y-114308331D01*
X130561654Y-114689283D01*
X130037844Y-113498807D02*
X130037844Y-113308331D01*
X130085464Y-113213093D01*
X130180702Y-113117855D01*
X130371178Y-113070236D01*
X130704511Y-113070236D01*
X130894987Y-113117855D01*
X130990225Y-113213093D01*
X131037844Y-113308331D01*
X131037844Y-113498807D01*
X130990225Y-113594045D01*
X130894987Y-113689283D01*
X130704511Y-113736902D01*
X130371178Y-113736902D01*
X130180702Y-113689283D01*
X130085464Y-113594045D01*
X130037844Y-113498807D01*
X130037844Y-112736902D02*
X131037844Y-112498807D01*
X130323559Y-112308331D01*
X131037844Y-112117855D01*
X130037844Y-111879760D01*
X130514035Y-111498807D02*
X130514035Y-111165474D01*
X131037844Y-111022617D02*
X131037844Y-111498807D01*
X130037844Y-111498807D01*
X130037844Y-111022617D01*
X131037844Y-110022617D02*
X130561654Y-110355950D01*
X131037844Y-110594045D02*
X130037844Y-110594045D01*
X130037844Y-110213093D01*
X130085464Y-110117855D01*
X130133083Y-110070236D01*
X130228321Y-110022617D01*
X130371178Y-110022617D01*
X130466416Y-110070236D01*
X130514035Y-110117855D01*
X130561654Y-110213093D01*
X130561654Y-110594045D01*
D10*
X162497113Y-111710099D02*
X162497113Y-110210099D01*
X163068541Y-110210099D01*
X163211398Y-110281528D01*
X163282827Y-110352956D01*
X163354256Y-110495813D01*
X163354256Y-110710099D01*
X163282827Y-110852956D01*
X163211398Y-110924385D01*
X163068541Y-110995813D01*
X162497113Y-110995813D01*
X164497113Y-110924385D02*
X164711398Y-110995813D01*
X164782827Y-111067242D01*
X164854256Y-111210099D01*
X164854256Y-111424385D01*
X164782827Y-111567242D01*
X164711398Y-111638670D01*
X164568541Y-111710099D01*
X163997113Y-111710099D01*
X163997113Y-110210099D01*
X164497113Y-110210099D01*
X164639970Y-110281528D01*
X164711398Y-110352956D01*
X164782827Y-110495813D01*
X164782827Y-110638670D01*
X164711398Y-110781528D01*
X164639970Y-110852956D01*
X164497113Y-110924385D01*
X163997113Y-110924385D01*
X166139970Y-110210099D02*
X165854256Y-110210099D01*
X165711398Y-110281528D01*
X165639970Y-110352956D01*
X165497113Y-110567242D01*
X165425684Y-110852956D01*
X165425684Y-111424385D01*
X165497113Y-111567242D01*
X165568541Y-111638670D01*
X165711398Y-111710099D01*
X165997113Y-111710099D01*
X166139970Y-111638670D01*
X166211398Y-111567242D01*
X166282827Y-111424385D01*
X166282827Y-111067242D01*
X166211398Y-110924385D01*
X166139970Y-110852956D01*
X165997113Y-110781528D01*
X165711398Y-110781528D01*
X165568541Y-110852956D01*
X165497113Y-110924385D01*
X165425684Y-111067242D01*
D11*
X127743195Y-101141716D02*
X127409861Y-100665526D01*
X127171766Y-101141716D02*
X127171766Y-100141716D01*
X127552718Y-100141716D01*
X127647956Y-100189336D01*
X127695576Y-100236955D01*
X127743195Y-100332193D01*
X127743195Y-100475050D01*
X127695576Y-100570288D01*
X127647956Y-100617907D01*
X127552718Y-100665526D01*
X127171766Y-100665526D01*
X128171766Y-100617907D02*
X128505099Y-100617907D01*
X128647956Y-101141716D02*
X128171766Y-101141716D01*
X128171766Y-100141716D01*
X128647956Y-100141716D01*
X129028909Y-101094097D02*
X129171766Y-101141716D01*
X129409861Y-101141716D01*
X129505099Y-101094097D01*
X129552718Y-101046478D01*
X129600337Y-100951240D01*
X129600337Y-100856002D01*
X129552718Y-100760764D01*
X129505099Y-100713145D01*
X129409861Y-100665526D01*
X129219385Y-100617907D01*
X129124147Y-100570288D01*
X129076528Y-100522669D01*
X129028909Y-100427431D01*
X129028909Y-100332193D01*
X129076528Y-100236955D01*
X129124147Y-100189336D01*
X129219385Y-100141716D01*
X129457480Y-100141716D01*
X129600337Y-100189336D01*
X130028909Y-100617907D02*
X130362242Y-100617907D01*
X130505099Y-101141716D02*
X130028909Y-101141716D01*
X130028909Y-100141716D01*
X130505099Y-100141716D01*
X130790814Y-100141716D02*
X131362242Y-100141716D01*
X131076528Y-101141716D02*
X131076528Y-100141716D01*
X128338433Y-102704097D02*
X128481290Y-102751716D01*
X128719385Y-102751716D01*
X128814623Y-102704097D01*
X128862242Y-102656478D01*
X128909861Y-102561240D01*
X128909861Y-102466002D01*
X128862242Y-102370764D01*
X128814623Y-102323145D01*
X128719385Y-102275526D01*
X128528909Y-102227907D01*
X128433671Y-102180288D01*
X128386052Y-102132669D01*
X128338433Y-102037431D01*
X128338433Y-101942193D01*
X128386052Y-101846955D01*
X128433671Y-101799336D01*
X128528909Y-101751716D01*
X128767004Y-101751716D01*
X128909861Y-101799336D01*
X129243195Y-101751716D02*
X129481290Y-102751716D01*
X129671766Y-102037431D01*
X129862242Y-102751716D01*
X130100337Y-101751716D01*
D10*
X166389962Y-82769339D02*
X165675676Y-82769339D01*
X165675676Y-81269339D01*
X167747105Y-82626482D02*
X167675676Y-82697910D01*
X167461390Y-82769339D01*
X167318533Y-82769339D01*
X167104248Y-82697910D01*
X166961390Y-82555053D01*
X166889962Y-82412196D01*
X166818533Y-82126482D01*
X166818533Y-81912196D01*
X166889962Y-81626482D01*
X166961390Y-81483625D01*
X167104248Y-81340768D01*
X167318533Y-81269339D01*
X167461390Y-81269339D01*
X167675676Y-81340768D01*
X167747105Y-81412196D01*
X168389962Y-82769339D02*
X168389962Y-81269339D01*
X168747105Y-81269339D01*
X168961390Y-81340768D01*
X169104248Y-81483625D01*
X169175676Y-81626482D01*
X169247105Y-81912196D01*
X169247105Y-82126482D01*
X169175676Y-82412196D01*
X169104248Y-82555053D01*
X168961390Y-82697910D01*
X168747105Y-82769339D01*
X168389962Y-82769339D01*
X169889962Y-82197910D02*
X171032819Y-82197910D01*
X170461390Y-82769339D02*
X170461390Y-81626482D01*
X133666753Y-118078513D02*
X135000086Y-118078513D01*
X133666753Y-120078513D01*
X135000086Y-120078513D01*
X135761991Y-119316609D02*
X137285801Y-119316609D01*
X138142944Y-119507085D02*
X139095324Y-119507085D01*
X137952467Y-120078513D02*
X138619134Y-118078513D01*
X139285801Y-120078513D01*
X139761991Y-118078513D02*
X141095324Y-120078513D01*
X141095324Y-118078513D02*
X139761991Y-120078513D01*
X141857229Y-120078513D02*
X141857229Y-118078513D01*
X142714372Y-119983275D02*
X143000086Y-120078513D01*
X143476277Y-120078513D01*
X143666753Y-119983275D01*
X143761991Y-119888037D01*
X143857229Y-119697561D01*
X143857229Y-119507085D01*
X143761991Y-119316609D01*
X143666753Y-119221371D01*
X143476277Y-119126132D01*
X143095324Y-119030894D01*
X142904848Y-118935656D01*
X142809610Y-118840418D01*
X142714372Y-118649942D01*
X142714372Y-118459466D01*
X142809610Y-118268990D01*
X142904848Y-118173752D01*
X143095324Y-118078513D01*
X143571515Y-118078513D01*
X143857229Y-118173752D01*
X147381039Y-119888037D02*
X147285801Y-119983275D01*
X147000086Y-120078513D01*
X146809610Y-120078513D01*
X146523896Y-119983275D01*
X146333420Y-119792799D01*
X146238182Y-119602323D01*
X146142944Y-119221371D01*
X146142944Y-118935656D01*
X146238182Y-118554704D01*
X146333420Y-118364228D01*
X146523896Y-118173752D01*
X146809610Y-118078513D01*
X147000086Y-118078513D01*
X147285801Y-118173752D01*
X147381039Y-118268990D01*
X148619134Y-118078513D02*
X149000086Y-118078513D01*
X149190563Y-118173752D01*
X149381039Y-118364228D01*
X149476277Y-118745180D01*
X149476277Y-119411847D01*
X149381039Y-119792799D01*
X149190563Y-119983275D01*
X149000086Y-120078513D01*
X148619134Y-120078513D01*
X148428658Y-119983275D01*
X148238182Y-119792799D01*
X148142944Y-119411847D01*
X148142944Y-118745180D01*
X148238182Y-118364228D01*
X148428658Y-118173752D01*
X148619134Y-118078513D01*
X150333420Y-120078513D02*
X150333420Y-118078513D01*
X151476277Y-120078513D01*
X151476277Y-118078513D01*
X152428658Y-120078513D02*
X152428658Y-118078513D01*
X153571515Y-120078513D01*
X153571515Y-118078513D01*
X154523896Y-119030894D02*
X155190563Y-119030894D01*
X155476277Y-120078513D02*
X154523896Y-120078513D01*
X154523896Y-118078513D01*
X155476277Y-118078513D01*
X157476277Y-119888037D02*
X157381039Y-119983275D01*
X157095324Y-120078513D01*
X156904848Y-120078513D01*
X156619134Y-119983275D01*
X156428658Y-119792799D01*
X156333420Y-119602323D01*
X156238182Y-119221371D01*
X156238182Y-118935656D01*
X156333420Y-118554704D01*
X156428658Y-118364228D01*
X156619134Y-118173752D01*
X156904848Y-118078513D01*
X157095324Y-118078513D01*
X157381039Y-118173752D01*
X157476277Y-118268990D01*
X158047705Y-118078513D02*
X159190563Y-118078513D01*
X158619134Y-120078513D02*
X158619134Y-118078513D01*
X160238182Y-118078513D02*
X160619134Y-118078513D01*
X160809610Y-118173752D01*
X161000086Y-118364228D01*
X161095324Y-118745180D01*
X161095324Y-119411847D01*
X161000086Y-119792799D01*
X160809610Y-119983275D01*
X160619134Y-120078513D01*
X160238182Y-120078513D01*
X160047705Y-119983275D01*
X159857229Y-119792799D01*
X159761991Y-119411847D01*
X159761991Y-118745180D01*
X159857229Y-118364228D01*
X160047705Y-118173752D01*
X160238182Y-118078513D01*
X163095324Y-120078513D02*
X162428658Y-119126132D01*
X161952467Y-120078513D02*
X161952467Y-118078513D01*
X162714372Y-118078513D01*
X162904848Y-118173752D01*
X163000086Y-118268990D01*
X163095324Y-118459466D01*
X163095324Y-118745180D01*
X163000086Y-118935656D01*
X162904848Y-119030894D01*
X162714372Y-119126132D01*
X161952467Y-119126132D01*
X166619134Y-119888037D02*
X166523896Y-119983275D01*
X166238182Y-120078513D01*
X166047705Y-120078513D01*
X165761991Y-119983275D01*
X165571515Y-119792799D01*
X165476277Y-119602323D01*
X165381039Y-119221371D01*
X165381039Y-118935656D01*
X165476277Y-118554704D01*
X165571515Y-118364228D01*
X165761991Y-118173752D01*
X166047705Y-118078513D01*
X166238182Y-118078513D01*
X166523896Y-118173752D01*
X166619134Y-118268990D01*
X167857229Y-118078513D02*
X168238182Y-118078513D01*
X168428658Y-118173752D01*
X168619134Y-118364228D01*
X168714372Y-118745180D01*
X168714372Y-119411847D01*
X168619134Y-119792799D01*
X168428658Y-119983275D01*
X168238182Y-120078513D01*
X167857229Y-120078513D01*
X167666753Y-119983275D01*
X167476277Y-119792799D01*
X167381039Y-119411847D01*
X167381039Y-118745180D01*
X167476277Y-118364228D01*
X167666753Y-118173752D01*
X167857229Y-118078513D01*
X169571515Y-120078513D02*
X169571515Y-118078513D01*
X170238182Y-119507085D01*
X170904848Y-118078513D01*
X170904848Y-120078513D01*
X171857229Y-120078513D02*
X171857229Y-118078513D01*
X172619134Y-118078513D01*
X172809610Y-118173752D01*
X172904848Y-118268990D01*
X173000086Y-118459466D01*
X173000086Y-118745180D01*
X172904848Y-118935656D01*
X172809610Y-119030894D01*
X172619134Y-119126132D01*
X171857229Y-119126132D01*
X173761991Y-119507085D02*
X174714372Y-119507085D01*
X173571515Y-120078513D02*
X174238182Y-118078513D01*
X174904848Y-120078513D01*
X175571515Y-120078513D02*
X175571515Y-118078513D01*
X176714372Y-120078513D01*
X176714372Y-118078513D01*
X178047705Y-119126132D02*
X178047705Y-120078513D01*
X177381039Y-118078513D02*
X178047705Y-119126132D01*
X178714372Y-118078513D01*
D11*
%TO.C,*%
D12*
X167615000Y-88275000D02*
X167615000Y-91075000D01*
X175405000Y-91075000D02*
X175405000Y-88275000D01*
X178115000Y-88275000D02*
X167615000Y-88275000D01*
X167615000Y-91075000D02*
X178115000Y-91075000D01*
X178115000Y-91075000D02*
X178115000Y-88275000D01*
X161250000Y-91075000D02*
X161250000Y-89335000D01*
X152440000Y-85275000D02*
X152440000Y-84075000D01*
X150950000Y-89335000D02*
X150950000Y-91075000D01*
X150950000Y-91075000D02*
X161250000Y-91075000D01*
X150950000Y-85275000D02*
X150950000Y-86615000D01*
X159760000Y-85275000D02*
X161250000Y-85275000D01*
X152440000Y-85275000D02*
X150950000Y-85275000D01*
X161250000Y-85275000D02*
X161250000Y-86615000D01*
X167666864Y-84080144D02*
X167666864Y-86880144D01*
X167666864Y-86880144D02*
X178166864Y-86880144D01*
X178166864Y-86880144D02*
X178166864Y-84080144D01*
X178166864Y-84080144D02*
X167666864Y-84080144D01*
X175456864Y-86880144D02*
X175456864Y-84080144D01*
X144250000Y-98090000D02*
X144250000Y-87590000D01*
X141450000Y-98090000D02*
X144250000Y-98090000D01*
X141450000Y-87590000D02*
X141450000Y-98090000D01*
X141450000Y-95380000D02*
X144250000Y-95380000D01*
X144250000Y-87590000D02*
X141450000Y-87590000D01*
%TD*%
D13*
%TO.C,*%
X133065000Y-115675000D03*
D14*
X135605000Y-115675000D03*
X138145000Y-115675000D03*
X140685000Y-115675000D03*
X143225000Y-115675000D03*
X145765000Y-115675000D03*
X148305000Y-115675000D03*
X150845000Y-115675000D03*
X153385000Y-115675000D03*
X155925000Y-115675000D03*
X158465000Y-115675000D03*
X161005000Y-115675000D03*
X163545000Y-115675000D03*
X166085000Y-115675000D03*
X168625000Y-115675000D03*
X171165000Y-115675000D03*
X173705000Y-115675000D03*
X176245000Y-115675000D03*
X178785000Y-115675000D03*
X181325000Y-115675000D03*
X181325000Y-100435000D03*
X178785000Y-100435000D03*
X176245000Y-100435000D03*
X173705000Y-100435000D03*
X171165000Y-100435000D03*
X168625000Y-100435000D03*
X166085000Y-100435000D03*
X163545000Y-100435000D03*
X161005000Y-100435000D03*
X158465000Y-100435000D03*
X155925000Y-100435000D03*
X153385000Y-100435000D03*
X150845000Y-100435000D03*
X148305000Y-100435000D03*
X145765000Y-100435000D03*
X143225000Y-100435000D03*
X140685000Y-100435000D03*
X138145000Y-100435000D03*
X135605000Y-100435000D03*
X133014200Y-100435000D03*
D15*
X136875000Y-106775000D03*
X136875000Y-109315000D03*
%TD*%
M02*
