%TF.GenerationSoftware,KiCad,Pcbnew,(6.0.7)*%
%TF.CreationDate,2023-06-13T14:52:57-04:00*%
%TF.ProjectId,STM32-NHD,53544d33-322d-44e4-9844-2e6b69636164,rev?*%
%TF.SameCoordinates,Original*%
%TF.FileFunction,Legend,Bot*%
%TF.FilePolarity,Positive*%
%FSLAX46Y46*%
G04 Gerber Fmt 4.6, Leading zero omitted, Abs format (unit mm)*
G04 Created by KiCad (PCBNEW (6.0.7)) date 2023-06-13 14:52:57*
%MOMM*%
%LPD*%
G01*
G04 APERTURE LIST*
%ADD10C,0.300000*%
G04 APERTURE END LIST*
D10*
X166229112Y-121380003D02*
X166086254Y-121380003D01*
X165943397Y-121451432D01*
X165871969Y-121522860D01*
X165800540Y-121665717D01*
X165729112Y-121951432D01*
X165729112Y-122308574D01*
X165800540Y-122594289D01*
X165871969Y-122737146D01*
X165943397Y-122808574D01*
X166086254Y-122880003D01*
X166229112Y-122880003D01*
X166371969Y-122808574D01*
X166443397Y-122737146D01*
X166514826Y-122594289D01*
X166586254Y-122308574D01*
X166586254Y-121951432D01*
X166514826Y-121665717D01*
X166443397Y-121522860D01*
X166371969Y-121451432D01*
X166229112Y-121380003D01*
X164443397Y-121880003D02*
X164443397Y-122880003D01*
X164800540Y-121308574D02*
X165157683Y-122380003D01*
X164229112Y-122380003D01*
X163371969Y-121380003D02*
X163229112Y-121380003D01*
X163086254Y-121451432D01*
X163014826Y-121522860D01*
X162943397Y-121665717D01*
X162871969Y-121951432D01*
X162871969Y-122308574D01*
X162943397Y-122594289D01*
X163014826Y-122737146D01*
X163086254Y-122808574D01*
X163229112Y-122880003D01*
X163371969Y-122880003D01*
X163514826Y-122808574D01*
X163586254Y-122737146D01*
X163657683Y-122594289D01*
X163729112Y-122308574D01*
X163729112Y-121951432D01*
X163657683Y-121665717D01*
X163586254Y-121522860D01*
X163514826Y-121451432D01*
X163371969Y-121380003D01*
X162300540Y-121522860D02*
X162229112Y-121451432D01*
X162086254Y-121380003D01*
X161729112Y-121380003D01*
X161586254Y-121451432D01*
X161514826Y-121522860D01*
X161443397Y-121665717D01*
X161443397Y-121808574D01*
X161514826Y-122022860D01*
X162371969Y-122880003D01*
X161443397Y-122880003D01*
X160943397Y-121380003D02*
X159943397Y-121380003D01*
X160586254Y-122880003D01*
X159371969Y-122308574D02*
X158229112Y-122308574D01*
X157229112Y-121380003D02*
X157086254Y-121380003D01*
X156943397Y-121451432D01*
X156871969Y-121522860D01*
X156800540Y-121665717D01*
X156729112Y-121951432D01*
X156729112Y-122308574D01*
X156800540Y-122594289D01*
X156871969Y-122737146D01*
X156943397Y-122808574D01*
X157086254Y-122880003D01*
X157229112Y-122880003D01*
X157371969Y-122808574D01*
X157443397Y-122737146D01*
X157514826Y-122594289D01*
X157586254Y-122308574D01*
X157586254Y-121951432D01*
X157514826Y-121665717D01*
X157443397Y-121522860D01*
X157371969Y-121451432D01*
X157229112Y-121380003D01*
X155800540Y-121380003D02*
X155657683Y-121380003D01*
X155514826Y-121451432D01*
X155443397Y-121522860D01*
X155371969Y-121665717D01*
X155300540Y-121951432D01*
X155300540Y-122308574D01*
X155371969Y-122594289D01*
X155443397Y-122737146D01*
X155514826Y-122808574D01*
X155657683Y-122880003D01*
X155800540Y-122880003D01*
X155943397Y-122808574D01*
X156014826Y-122737146D01*
X156086254Y-122594289D01*
X156157683Y-122308574D01*
X156157683Y-121951432D01*
X156086254Y-121665717D01*
X156014826Y-121522860D01*
X155943397Y-121451432D01*
X155800540Y-121380003D01*
X153871969Y-122880003D02*
X154729112Y-122880003D01*
X154300540Y-122880003D02*
X154300540Y-121380003D01*
X154443397Y-121594289D01*
X154586254Y-121737146D01*
X154729112Y-121808574D01*
X153229112Y-122308574D02*
X152086254Y-122308574D01*
X151371969Y-122880003D02*
X151371969Y-121380003D01*
X150514826Y-122880003D01*
X150514826Y-121380003D01*
X149800540Y-122880003D02*
X149800540Y-121380003D01*
X149800540Y-122094289D02*
X148943397Y-122094289D01*
X148943397Y-122880003D02*
X148943397Y-121380003D01*
X148229112Y-122880003D02*
X148229112Y-121380003D01*
X147871969Y-121380003D01*
X147657683Y-121451432D01*
X147514826Y-121594289D01*
X147443397Y-121737146D01*
X147371969Y-122022860D01*
X147371969Y-122237146D01*
X147443397Y-122522860D01*
X147514826Y-122665717D01*
X147657683Y-122808574D01*
X147871969Y-122880003D01*
X148229112Y-122880003D01*
X178757310Y-118147601D02*
X177423977Y-118147601D01*
X178757310Y-120147601D01*
X177423977Y-120147601D01*
X176662072Y-119385697D02*
X175138262Y-119385697D01*
X174281120Y-119576173D02*
X173328739Y-119576173D01*
X174471596Y-120147601D02*
X173804929Y-118147601D01*
X173138262Y-120147601D01*
X172662072Y-118147601D02*
X171328739Y-120147601D01*
X171328739Y-118147601D02*
X172662072Y-120147601D01*
X170566834Y-120147601D02*
X170566834Y-118147601D01*
X169709691Y-120052363D02*
X169423977Y-120147601D01*
X168947786Y-120147601D01*
X168757310Y-120052363D01*
X168662072Y-119957125D01*
X168566834Y-119766649D01*
X168566834Y-119576173D01*
X168662072Y-119385697D01*
X168757310Y-119290459D01*
X168947786Y-119195220D01*
X169328739Y-119099982D01*
X169519215Y-119004744D01*
X169614453Y-118909506D01*
X169709691Y-118719030D01*
X169709691Y-118528554D01*
X169614453Y-118338078D01*
X169519215Y-118242840D01*
X169328739Y-118147601D01*
X168852548Y-118147601D01*
X168566834Y-118242840D01*
X165043024Y-119957125D02*
X165138262Y-120052363D01*
X165423977Y-120147601D01*
X165614453Y-120147601D01*
X165900167Y-120052363D01*
X166090643Y-119861887D01*
X166185881Y-119671411D01*
X166281120Y-119290459D01*
X166281120Y-119004744D01*
X166185881Y-118623792D01*
X166090643Y-118433316D01*
X165900167Y-118242840D01*
X165614453Y-118147601D01*
X165423977Y-118147601D01*
X165138262Y-118242840D01*
X165043024Y-118338078D01*
X163804929Y-118147601D02*
X163423977Y-118147601D01*
X163233500Y-118242840D01*
X163043024Y-118433316D01*
X162947786Y-118814268D01*
X162947786Y-119480935D01*
X163043024Y-119861887D01*
X163233500Y-120052363D01*
X163423977Y-120147601D01*
X163804929Y-120147601D01*
X163995405Y-120052363D01*
X164185881Y-119861887D01*
X164281120Y-119480935D01*
X164281120Y-118814268D01*
X164185881Y-118433316D01*
X163995405Y-118242840D01*
X163804929Y-118147601D01*
X162090643Y-120147601D02*
X162090643Y-118147601D01*
X160947786Y-120147601D01*
X160947786Y-118147601D01*
X159995405Y-120147601D02*
X159995405Y-118147601D01*
X158852548Y-120147601D01*
X158852548Y-118147601D01*
X157900167Y-119099982D02*
X157233500Y-119099982D01*
X156947786Y-120147601D02*
X157900167Y-120147601D01*
X157900167Y-118147601D01*
X156947786Y-118147601D01*
X154947786Y-119957125D02*
X155043024Y-120052363D01*
X155328739Y-120147601D01*
X155519215Y-120147601D01*
X155804929Y-120052363D01*
X155995405Y-119861887D01*
X156090643Y-119671411D01*
X156185881Y-119290459D01*
X156185881Y-119004744D01*
X156090643Y-118623792D01*
X155995405Y-118433316D01*
X155804929Y-118242840D01*
X155519215Y-118147601D01*
X155328739Y-118147601D01*
X155043024Y-118242840D01*
X154947786Y-118338078D01*
X154376358Y-118147601D02*
X153233500Y-118147601D01*
X153804929Y-120147601D02*
X153804929Y-118147601D01*
X152185881Y-118147601D02*
X151804929Y-118147601D01*
X151614453Y-118242840D01*
X151423977Y-118433316D01*
X151328739Y-118814268D01*
X151328739Y-119480935D01*
X151423977Y-119861887D01*
X151614453Y-120052363D01*
X151804929Y-120147601D01*
X152185881Y-120147601D01*
X152376358Y-120052363D01*
X152566834Y-119861887D01*
X152662072Y-119480935D01*
X152662072Y-118814268D01*
X152566834Y-118433316D01*
X152376358Y-118242840D01*
X152185881Y-118147601D01*
X149328739Y-120147601D02*
X149995405Y-119195220D01*
X150471596Y-120147601D02*
X150471596Y-118147601D01*
X149709691Y-118147601D01*
X149519215Y-118242840D01*
X149423977Y-118338078D01*
X149328739Y-118528554D01*
X149328739Y-118814268D01*
X149423977Y-119004744D01*
X149519215Y-119099982D01*
X149709691Y-119195220D01*
X150471596Y-119195220D01*
X145804929Y-119957125D02*
X145900167Y-120052363D01*
X146185881Y-120147601D01*
X146376358Y-120147601D01*
X146662072Y-120052363D01*
X146852548Y-119861887D01*
X146947786Y-119671411D01*
X147043024Y-119290459D01*
X147043024Y-119004744D01*
X146947786Y-118623792D01*
X146852548Y-118433316D01*
X146662072Y-118242840D01*
X146376358Y-118147601D01*
X146185881Y-118147601D01*
X145900167Y-118242840D01*
X145804929Y-118338078D01*
X144566834Y-118147601D02*
X144185881Y-118147601D01*
X143995405Y-118242840D01*
X143804929Y-118433316D01*
X143709691Y-118814268D01*
X143709691Y-119480935D01*
X143804929Y-119861887D01*
X143995405Y-120052363D01*
X144185881Y-120147601D01*
X144566834Y-120147601D01*
X144757310Y-120052363D01*
X144947786Y-119861887D01*
X145043024Y-119480935D01*
X145043024Y-118814268D01*
X144947786Y-118433316D01*
X144757310Y-118242840D01*
X144566834Y-118147601D01*
X142852548Y-120147601D02*
X142852548Y-118147601D01*
X142185881Y-119576173D01*
X141519215Y-118147601D01*
X141519215Y-120147601D01*
X140566834Y-120147601D02*
X140566834Y-118147601D01*
X139804929Y-118147601D01*
X139614453Y-118242840D01*
X139519215Y-118338078D01*
X139423977Y-118528554D01*
X139423977Y-118814268D01*
X139519215Y-119004744D01*
X139614453Y-119099982D01*
X139804929Y-119195220D01*
X140566834Y-119195220D01*
X138662072Y-119576173D02*
X137709691Y-119576173D01*
X138852548Y-120147601D02*
X138185881Y-118147601D01*
X137519215Y-120147601D01*
X136852548Y-120147601D02*
X136852548Y-118147601D01*
X135709691Y-120147601D01*
X135709691Y-118147601D01*
X134376358Y-119195220D02*
X134376358Y-120147601D01*
X135043024Y-118147601D02*
X134376358Y-119195220D01*
X133709691Y-118147601D01*
M02*
