M48
; DRILL file {KiCad (6.0.7)} date Tue Jun 13 14:52:54 2023
; FORMAT={-:-/ absolute / inch / decimal}
; #@! TF.CreationDate,2023-06-13T14:52:54-04:00
; #@! TF.GenerationSoftware,Kicad,Pcbnew,(6.0.7)
; #@! TF.FileFunction,Plated,1,2,PTH
FMAT,2
INCH
; #@! TA.AperFunction,Plated,PTH,ComponentDrill
T1C0.0300
; #@! TA.AperFunction,Plated,PTH,ComponentDrill
T2C0.0315
; #@! TA.AperFunction,Plated,PTH,ComponentDrill
T3C0.0400
; #@! TA.AperFunction,Plated,PTH,ComponentDrill
T4C0.0787
%
G90
G05
T1
X5.0569Y-4.3705
X5.0569Y-4.4705
X5.088Y-4.1651
X5.188Y-4.1651
T2
X5.624Y-3.5051
X5.624Y-3.6051
X5.624Y-3.7051
X5.624Y-3.8051
X6.6557Y-3.5305
X6.6578Y-3.3654
X6.7557Y-3.5305
X6.7578Y-3.3654
X6.8557Y-3.5305
X6.8578Y-3.3654
X6.9557Y-3.5305
X6.9578Y-3.3654
T3
X5.2368Y-3.9541
X5.2388Y-4.5541
X5.3388Y-3.9541
X5.3388Y-4.5541
X5.3888Y-4.2037
X5.3888Y-4.3037
X5.4388Y-3.9541
X5.4388Y-4.5541
X5.5388Y-3.9541
X5.5388Y-4.5541
X5.6388Y-3.9541
X5.6388Y-4.5541
X5.7388Y-3.9541
X5.7388Y-4.5541
X5.8388Y-3.9541
X5.8388Y-4.5541
X5.9388Y-3.9541
X5.9388Y-4.5541
X6.0388Y-3.9541
X6.0388Y-4.5541
X6.1388Y-3.9541
X6.1388Y-4.5541
X6.2388Y-3.9541
X6.2388Y-4.5541
X6.3388Y-3.9541
X6.3388Y-4.5541
X6.4388Y-3.9541
X6.4388Y-4.5541
X6.5388Y-3.9541
X6.5388Y-4.5541
X6.6388Y-3.9541
X6.6388Y-4.5541
X6.7388Y-3.9541
X6.7388Y-4.5541
X6.8388Y-3.9541
X6.8388Y-4.5541
X6.9388Y-3.9541
X6.9388Y-4.5541
X7.0388Y-3.9541
X7.0388Y-4.5541
X7.1388Y-3.9541
X7.1388Y-4.5541
T4
X5.0885Y-3.4587
X5.0885Y-3.6457
X5.0885Y-3.8327
T0
M30
